<mxfile host="Electron" agent="Mozilla/5.0 (Windows NT 10.0; Win64; x64) AppleWebKit/537.36 (KHTML, like Gecko) draw.io/28.1.2 Chrome/138.0.7204.243 Electron/37.4.0 Safari/537.36" version="28.1.2" pages="4">
  <diagram id="DNqomfBPj5CJveLISTVG" name="LOGIN PAGE">
    <mxGraphModel dx="1025" dy="516" grid="1" gridSize="10" guides="1" tooltips="1" connect="1" arrows="1" fold="1" page="1" pageScale="1" pageWidth="850" pageHeight="1100" math="0" shadow="0">
      <root>
        <mxCell id="0" />
        <mxCell id="1" parent="0" />
        <mxCell id="5HH0I2pT1BxFvksO33g7-1" value="" style="rounded=0;whiteSpace=wrap;html=1;" vertex="1" parent="1">
          <mxGeometry x="40" y="80" width="760" height="400" as="geometry" />
        </mxCell>
        <mxCell id="5HH0I2pT1BxFvksO33g7-2" value="" style="rounded=0;whiteSpace=wrap;html=1;" vertex="1" parent="1">
          <mxGeometry x="295" y="140" width="250" height="300" as="geometry" />
        </mxCell>
        <mxCell id="5HH0I2pT1BxFvksO33g7-5" value="" style="rounded=0;whiteSpace=wrap;html=1;" vertex="1" parent="1">
          <mxGeometry x="312.5" y="230" width="210" height="20" as="geometry" />
        </mxCell>
        <mxCell id="5HH0I2pT1BxFvksO33g7-6" value="" style="rounded=0;whiteSpace=wrap;html=1;" vertex="1" parent="1">
          <mxGeometry x="312.5" y="270" width="210" height="20" as="geometry" />
        </mxCell>
        <mxCell id="5HH0I2pT1BxFvksO33g7-7" value="email" style="text;html=1;align=center;verticalAlign=middle;whiteSpace=wrap;rounded=0;" vertex="1" parent="1">
          <mxGeometry x="312.5" y="210" width="37.5" height="20" as="geometry" />
        </mxCell>
        <mxCell id="5HH0I2pT1BxFvksO33g7-9" value="password" style="text;html=1;align=center;verticalAlign=middle;whiteSpace=wrap;rounded=0;" vertex="1" parent="1">
          <mxGeometry x="320" y="250" width="37.5" height="20" as="geometry" />
        </mxCell>
        <mxCell id="5HH0I2pT1BxFvksO33g7-10" value="Prijavi se" style="rounded=0;whiteSpace=wrap;html=1;" vertex="1" parent="1">
          <mxGeometry x="460" y="300" width="62.5" height="20" as="geometry" />
        </mxCell>
        <mxCell id="5HH0I2pT1BxFvksO33g7-11" value="Prijava" style="text;html=1;align=center;verticalAlign=middle;whiteSpace=wrap;rounded=0;" vertex="1" parent="1">
          <mxGeometry x="387.5" y="170" width="60" height="30" as="geometry" />
        </mxCell>
        <mxCell id="5HH0I2pT1BxFvksO33g7-12" value="LOGO" style="verticalLabelPosition=bottom;verticalAlign=top;html=1;shape=mxgraph.basic.smiley" vertex="1" parent="1">
          <mxGeometry x="120" y="220" width="100" height="100" as="geometry" />
        </mxCell>
      </root>
    </mxGraphModel>
  </diagram>
  <diagram name="MAIN" id="6Wc1S2ZpU2DQ6QY1dSJ8">
    <mxGraphModel dx="1025" dy="516" grid="1" gridSize="10" guides="1" tooltips="1" connect="1" arrows="1" fold="1" page="1" pageScale="1" pageWidth="850" pageHeight="1100" math="0" shadow="0">
      <root>
        <mxCell id="0" />
        <mxCell id="1" parent="0" />
        <mxCell id="BQTJyyY9fu0MqKWO3hfP-1" value="" style="rounded=0;whiteSpace=wrap;html=1;" vertex="1" parent="1">
          <mxGeometry x="40" y="80" width="760" height="400" as="geometry" />
        </mxCell>
        <mxCell id="BQTJyyY9fu0MqKWO3hfP-3" value="" style="rounded=0;whiteSpace=wrap;html=1;" vertex="1" parent="1">
          <mxGeometry x="40" y="120" width="760" height="370" as="geometry" />
        </mxCell>
        <mxCell id="BQTJyyY9fu0MqKWO3hfP-4" value="" style="verticalLabelPosition=bottom;verticalAlign=top;html=1;shape=mxgraph.basic.smiley" vertex="1" parent="1">
          <mxGeometry x="50" y="80" width="40" height="40" as="geometry" />
        </mxCell>
        <mxCell id="BQTJyyY9fu0MqKWO3hfP-5" value="Od njive do stola" style="text;html=1;align=center;verticalAlign=middle;whiteSpace=wrap;rounded=0;" vertex="1" parent="1">
          <mxGeometry x="90" y="85" width="100" height="30" as="geometry" />
        </mxCell>
        <mxCell id="BQTJyyY9fu0MqKWO3hfP-6" value="[Paketi] [Profil] [Pretplate] [Izloguj se]" style="text;html=1;align=right;verticalAlign=middle;whiteSpace=wrap;rounded=0;" vertex="1" parent="1">
          <mxGeometry x="290" y="85" width="500" height="30" as="geometry" />
        </mxCell>
        <mxCell id="BQTJyyY9fu0MqKWO3hfP-7" value="" style="verticalLabelPosition=bottom;verticalAlign=top;html=1;shape=mxgraph.basic.patternFillRect;fillStyle=diag;step=5;fillStrokeWidth=0.2;fillStrokeColor=#dddddd;" vertex="1" parent="1">
          <mxGeometry x="90" y="150" width="680" height="60" as="geometry" />
        </mxCell>
        <mxCell id="BQTJyyY9fu0MqKWO3hfP-8" value="DOBRODOŠLI - Pretplatite se na paket dostave sveže domaće hrane" style="text;html=1;align=center;verticalAlign=middle;whiteSpace=wrap;rounded=0;" vertex="1" parent="1">
          <mxGeometry x="140" y="165" width="600" height="30" as="geometry" />
        </mxCell>
        <mxCell id="BQTJyyY9fu0MqKWO3hfP-9" value="" style="rounded=0;whiteSpace=wrap;html=1;" vertex="1" parent="1">
          <mxGeometry x="90" y="240" width="200" height="180" as="geometry" />
        </mxCell>
        <mxCell id="BQTJyyY9fu0MqKWO3hfP-13" value="" style="rounded=0;whiteSpace=wrap;html=1;" vertex="1" parent="1">
          <mxGeometry x="90" y="440" width="200" height="50" as="geometry" />
        </mxCell>
        <mxCell id="BQTJyyY9fu0MqKWO3hfP-15" value="" style="rounded=0;whiteSpace=wrap;html=1;" vertex="1" parent="1">
          <mxGeometry x="330" y="440" width="200" height="50" as="geometry" />
        </mxCell>
        <mxCell id="BQTJyyY9fu0MqKWO3hfP-16" value="" style="rounded=0;whiteSpace=wrap;html=1;" vertex="1" parent="1">
          <mxGeometry x="570" y="440" width="200" height="50" as="geometry" />
        </mxCell>
        <mxCell id="BQTJyyY9fu0MqKWO3hfP-17" value="" style="rounded=0;whiteSpace=wrap;html=1;" vertex="1" parent="1">
          <mxGeometry x="330" y="240" width="200" height="180" as="geometry" />
        </mxCell>
        <mxCell id="BQTJyyY9fu0MqKWO3hfP-18" value="" style="rounded=0;whiteSpace=wrap;html=1;" vertex="1" parent="1">
          <mxGeometry x="570" y="240" width="200" height="180" as="geometry" />
        </mxCell>
        <mxCell id="BQTJyyY9fu0MqKWO3hfP-19" value="Mala gajbica" style="rounded=0;whiteSpace=wrap;html=1;" vertex="1" parent="1">
          <mxGeometry x="90" y="240" width="200" height="40" as="geometry" />
        </mxCell>
        <mxCell id="BQTJyyY9fu0MqKWO3hfP-20" value="&lt;h1 style=&quot;margin-top: 0px;&quot;&gt;1-2 osobe&lt;/h1&gt;&lt;p&gt;Lorem ipsum dolor sit amet, consectetur adipisicing elit, sed do eiusmod tempor incididunt ut labore et dolore magna aliqua.&lt;/p&gt;" style="text;html=1;whiteSpace=wrap;overflow=hidden;rounded=0;" vertex="1" parent="1">
          <mxGeometry x="100" y="280" width="180" height="120" as="geometry" />
        </mxCell>
        <mxCell id="BQTJyyY9fu0MqKWO3hfP-21" value="" style="rounded=0;whiteSpace=wrap;html=1;" vertex="1" parent="1">
          <mxGeometry x="330" y="240" width="200" height="180" as="geometry" />
        </mxCell>
        <mxCell id="BQTJyyY9fu0MqKWO3hfP-22" value="Srednja gajbica" style="rounded=0;whiteSpace=wrap;html=1;" vertex="1" parent="1">
          <mxGeometry x="330" y="240" width="200" height="40" as="geometry" />
        </mxCell>
        <mxCell id="BQTJyyY9fu0MqKWO3hfP-23" value="&lt;h1 style=&quot;margin-top: 0px;&quot;&gt;1-2 osobe&lt;/h1&gt;&lt;p&gt;Lorem ipsum dolor sit amet, consectetur adipisicing elit, sed do eiusmod tempor incididunt ut labore et dolore magna aliqua.&lt;/p&gt;" style="text;html=1;whiteSpace=wrap;overflow=hidden;rounded=0;" vertex="1" parent="1">
          <mxGeometry x="340" y="280" width="180" height="120" as="geometry" />
        </mxCell>
        <mxCell id="BQTJyyY9fu0MqKWO3hfP-24" value="" style="rounded=0;whiteSpace=wrap;html=1;" vertex="1" parent="1">
          <mxGeometry x="570" y="240" width="200" height="180" as="geometry" />
        </mxCell>
        <mxCell id="BQTJyyY9fu0MqKWO3hfP-25" value="Velika" style="rounded=0;whiteSpace=wrap;html=1;" vertex="1" parent="1">
          <mxGeometry x="570" y="240" width="200" height="40" as="geometry" />
        </mxCell>
        <mxCell id="BQTJyyY9fu0MqKWO3hfP-26" value="&lt;h1 style=&quot;margin-top: 0px;&quot;&gt;1-2 osobe&lt;/h1&gt;&lt;p&gt;Lorem ipsum dolor sit amet, consectetur adipisicing elit, sed do eiusmod tempor incididunt ut labore et dolore magna aliqua.&lt;/p&gt;" style="text;html=1;whiteSpace=wrap;overflow=hidden;rounded=0;" vertex="1" parent="1">
          <mxGeometry x="580" y="280" width="180" height="120" as="geometry" />
        </mxCell>
        <mxCell id="BQTJyyY9fu0MqKWO3hfP-27" value="Mala gajbica" style="rounded=0;whiteSpace=wrap;html=1;" vertex="1" parent="1">
          <mxGeometry x="90" y="440" width="200" height="40" as="geometry" />
        </mxCell>
        <mxCell id="BQTJyyY9fu0MqKWO3hfP-28" value="Mala gajbica" style="rounded=0;whiteSpace=wrap;html=1;" vertex="1" parent="1">
          <mxGeometry x="330" y="440" width="200" height="40" as="geometry" />
        </mxCell>
        <mxCell id="BQTJyyY9fu0MqKWO3hfP-29" value="Mala gajbica" style="rounded=0;whiteSpace=wrap;html=1;" vertex="1" parent="1">
          <mxGeometry x="570" y="440" width="200" height="40" as="geometry" />
        </mxCell>
      </root>
    </mxGraphModel>
  </diagram>
  <diagram id="5qYxUviOkbgmXH_EN0NT" name="Detalji paketa">
    <mxGraphModel dx="1025" dy="516" grid="1" gridSize="10" guides="1" tooltips="1" connect="1" arrows="1" fold="1" page="1" pageScale="1" pageWidth="850" pageHeight="1100" math="0" shadow="0">
      <root>
        <mxCell id="0" />
        <mxCell id="1" parent="0" />
        <mxCell id="J2NaJ8wVXjWMgco4uT0V-1" value="" style="rounded=0;whiteSpace=wrap;html=1;" vertex="1" parent="1">
          <mxGeometry x="30" y="100" width="760" height="400" as="geometry" />
        </mxCell>
        <mxCell id="J2NaJ8wVXjWMgco4uT0V-2" value="" style="rounded=0;whiteSpace=wrap;html=1;" vertex="1" parent="1">
          <mxGeometry x="30" y="140" width="760" height="370" as="geometry" />
        </mxCell>
        <mxCell id="J2NaJ8wVXjWMgco4uT0V-3" value="" style="verticalLabelPosition=bottom;verticalAlign=top;html=1;shape=mxgraph.basic.smiley" vertex="1" parent="1">
          <mxGeometry x="40" y="100" width="40" height="40" as="geometry" />
        </mxCell>
        <mxCell id="J2NaJ8wVXjWMgco4uT0V-4" value="Od njive do stola" style="text;html=1;align=center;verticalAlign=middle;whiteSpace=wrap;rounded=0;" vertex="1" parent="1">
          <mxGeometry x="80" y="105" width="100" height="30" as="geometry" />
        </mxCell>
        <mxCell id="J2NaJ8wVXjWMgco4uT0V-5" value="[Paketi] [Profil] [Pretplate] [Izloguj se]" style="text;html=1;align=right;verticalAlign=middle;whiteSpace=wrap;rounded=0;" vertex="1" parent="1">
          <mxGeometry x="280" y="105" width="500" height="30" as="geometry" />
        </mxCell>
        <mxCell id="J2NaJ8wVXjWMgco4uT0V-6" value="" style="verticalLabelPosition=bottom;verticalAlign=top;html=1;shape=mxgraph.basic.patternFillRect;fillStyle=diag;step=5;fillStrokeWidth=0.2;fillStrokeColor=#dddddd;" vertex="1" parent="1">
          <mxGeometry x="80" y="170" width="680" height="60" as="geometry" />
        </mxCell>
        <mxCell id="J2NaJ8wVXjWMgco4uT0V-7" value="PAKET - ZA NAS" style="text;html=1;align=center;verticalAlign=middle;whiteSpace=wrap;rounded=0;" vertex="1" parent="1">
          <mxGeometry x="130" y="185" width="600" height="30" as="geometry" />
        </mxCell>
        <mxCell id="J2NaJ8wVXjWMgco4uT0V-25" value="&lt;h1 style=&quot;margin-top: 0px;&quot;&gt;4-6 osoba&lt;/h1&gt;&lt;p&gt;Lorem ipsum dolor sit amet, consectetur adipisicing elit, sed do eiusmod tempor incididunt ut labore et dolore magna aliqua.&lt;/p&gt;" style="text;html=1;whiteSpace=wrap;overflow=hidden;rounded=0;" vertex="1" parent="1">
          <mxGeometry x="80" y="250" width="310" height="220" as="geometry" />
        </mxCell>
        <mxCell id="J2NaJ8wVXjWMgco4uT0V-26" value="Godišnji plan" style="rounded=0;whiteSpace=wrap;html=1;" vertex="1" parent="1">
          <mxGeometry x="590" y="250" width="160" height="30" as="geometry" />
        </mxCell>
        <mxCell id="J2NaJ8wVXjWMgco4uT0V-27" value="Mesečni plan" style="rounded=0;whiteSpace=wrap;html=1;fillColor=#d5e8d4;strokeColor=#82b366;" vertex="1" parent="1">
          <mxGeometry x="420" y="250" width="170" height="30" as="geometry" />
        </mxCell>
        <mxCell id="J2NaJ8wVXjWMgco4uT0V-28" value="Poruči" style="rounded=0;whiteSpace=wrap;html=1;" vertex="1" parent="1">
          <mxGeometry x="590" y="460" width="160" height="30" as="geometry" />
        </mxCell>
        <mxCell id="J2NaJ8wVXjWMgco4uT0V-29" value="" style="rounded=0;whiteSpace=wrap;html=1;" vertex="1" parent="1">
          <mxGeometry x="520" y="290" width="230" height="20" as="geometry" />
        </mxCell>
        <mxCell id="J2NaJ8wVXjWMgco4uT0V-30" value="" style="rounded=0;whiteSpace=wrap;html=1;" vertex="1" parent="1">
          <mxGeometry x="520" y="315" width="230" height="15" as="geometry" />
        </mxCell>
        <mxCell id="J2NaJ8wVXjWMgco4uT0V-31" value="" style="rounded=0;whiteSpace=wrap;html=1;" vertex="1" parent="1">
          <mxGeometry x="520" y="337.5" width="230" height="22.5" as="geometry" />
        </mxCell>
        <mxCell id="J2NaJ8wVXjWMgco4uT0V-32" value="Adresa&lt;span style=&quot;color: rgba(0, 0, 0, 0); font-family: monospace; font-size: 0px; text-align: start; text-wrap-mode: nowrap;&quot;&gt;%3CmxGraphModel%3E%3Croot%3E%3CmxCell%20id%3D%220%22%2F%3E%3CmxCell%20id%3D%221%22%20parent%3D%220%22%2F%3E%3CmxCell%20id%3D%222%22%20value%3D%22%22%20style%3D%22rounded%3D0%3BwhiteSpace%3Dwrap%3Bhtml%3D1%3B%22%20vertex%3D%221%22%20parent%3D%221%22%3E%3CmxGeometry%20x%3D%22520%22%20y%3D%22300%22%20width%3D%22230%22%20height%3D%2230%22%20as%3D%22geometry%22%2F%3E%3C%2FmxCell%3E%3C%2Froot%3E%3C%2FmxGraphModel%3E&lt;/span&gt;&lt;span style=&quot;color: rgba(0, 0, 0, 0); font-family: monospace; font-size: 0px; text-align: start; text-wrap-mode: nowrap;&quot;&gt;%3CmxGraphModel%3E%3Croot%3E%3CmxCell%20id%3D%220%22%2F%3E%3CmxCell%20id%3D%221%22%20parent%3D%220%22%2F%3E%3CmxCell%20id%3D%222%22%20value%3D%22%22%20style%3D%22rounded%3D0%3BwhiteSpace%3Dwrap%3Bhtml%3D1%3B%22%20vertex%3D%221%22%20parent%3D%221%22%3E%3CmxGeometry%20x%3D%22520%22%20y%3D%22300%22%20width%3D%22230%22%20height%3D%2230%22%20as%3D%22geometry%22%2F%3E%3C%2FmxCell%3E%3C%2Froot%3E%3C%2FmxGraphModel%3E&lt;/span&gt;&lt;span style=&quot;color: rgba(0, 0, 0, 0); font-family: monospace; font-size: 0px; text-align: start; text-wrap-mode: nowrap;&quot;&gt;%3CmxGraphModel%3E%3Croot%3E%3CmxCell%20id%3D%220%22%2F%3E%3CmxCell%20id%3D%221%22%20parent%3D%220%22%2F%3E%3CmxCell%20id%3D%222%22%20value%3D%22%22%20style%3D%22rounded%3D0%3BwhiteSpace%3Dwrap%3Bhtml%3D1%3B%22%20vertex%3D%221%22%20parent%3D%221%22%3E%3CmxGeometry%20x%3D%22520%22%20y%3D%22300%22%20width%3D%22230%22%20height%3D%2230%22%20as%3D%22geometry%22%2F%3E%3C%2FmxCell%3E%3C%2Froot%3E%3C%2FmxGraphModel%3E&lt;/span&gt;" style="text;html=1;align=center;verticalAlign=middle;whiteSpace=wrap;rounded=0;" vertex="1" parent="1">
          <mxGeometry x="430" y="285" width="60" height="30" as="geometry" />
        </mxCell>
        <mxCell id="J2NaJ8wVXjWMgco4uT0V-33" value="Poštanski broj" style="text;html=1;align=center;verticalAlign=middle;whiteSpace=wrap;rounded=0;" vertex="1" parent="1">
          <mxGeometry x="417.5" y="307.5" width="85" height="30" as="geometry" />
        </mxCell>
        <mxCell id="J2NaJ8wVXjWMgco4uT0V-34" value="Broj telefona" style="text;html=1;align=center;verticalAlign=middle;whiteSpace=wrap;rounded=0;" vertex="1" parent="1">
          <mxGeometry x="430" y="333.75" width="75" height="30" as="geometry" />
        </mxCell>
        <mxCell id="J2NaJ8wVXjWMgco4uT0V-35" value="" style="rounded=0;whiteSpace=wrap;html=1;" vertex="1" parent="1">
          <mxGeometry x="520" y="370" width="230" height="60" as="geometry" />
        </mxCell>
        <mxCell id="J2NaJ8wVXjWMgco4uT0V-36" value="Uputstvo za dostavu(opciono)" style="text;html=1;align=center;verticalAlign=middle;whiteSpace=wrap;rounded=0;" vertex="1" parent="1">
          <mxGeometry x="418" y="364" width="82" height="46" as="geometry" />
        </mxCell>
      </root>
    </mxGraphModel>
  </diagram>
  <diagram id="fzNgZNnQgWY_bUgjSKLW" name="TipPaketa(Admin)">
    <mxGraphModel dx="1079" dy="543" grid="1" gridSize="10" guides="1" tooltips="1" connect="1" arrows="1" fold="1" page="1" pageScale="1" pageWidth="850" pageHeight="1100" math="0" shadow="0">
      <root>
        <mxCell id="0" />
        <mxCell id="1" parent="0" />
        <mxCell id="-K3C3dfQ-VNk3w2EAHVQ-1" value="" style="rounded=0;whiteSpace=wrap;html=1;" vertex="1" parent="1">
          <mxGeometry x="60" y="140" width="760" height="400" as="geometry" />
        </mxCell>
        <mxCell id="-K3C3dfQ-VNk3w2EAHVQ-2" value="" style="rounded=0;whiteSpace=wrap;html=1;" vertex="1" parent="1">
          <mxGeometry x="60" y="180" width="760" height="370" as="geometry" />
        </mxCell>
        <mxCell id="-K3C3dfQ-VNk3w2EAHVQ-3" value="" style="verticalLabelPosition=bottom;verticalAlign=top;html=1;shape=mxgraph.basic.smiley" vertex="1" parent="1">
          <mxGeometry x="70" y="140" width="40" height="40" as="geometry" />
        </mxCell>
        <mxCell id="-K3C3dfQ-VNk3w2EAHVQ-4" value="Od njive do stola" style="text;html=1;align=center;verticalAlign=middle;whiteSpace=wrap;rounded=0;" vertex="1" parent="1">
          <mxGeometry x="110" y="145" width="100" height="30" as="geometry" />
        </mxCell>
        <mxCell id="-K3C3dfQ-VNk3w2EAHVQ-5" value="[Paketi] [Profil] [Pretplate] [Izloguj se]" style="text;html=1;align=right;verticalAlign=middle;whiteSpace=wrap;rounded=0;" vertex="1" parent="1">
          <mxGeometry x="310" y="145" width="500" height="30" as="geometry" />
        </mxCell>
        <mxCell id="-K3C3dfQ-VNk3w2EAHVQ-20" value="" style="rounded=0;whiteSpace=wrap;html=1;" vertex="1" parent="1">
          <mxGeometry x="90" y="210" width="710" height="300" as="geometry" />
        </mxCell>
        <mxCell id="-K3C3dfQ-VNk3w2EAHVQ-21" value="" style="rounded=0;whiteSpace=wrap;html=1;" vertex="1" parent="1">
          <mxGeometry x="90" y="210" width="160" height="300" as="geometry" />
        </mxCell>
        <mxCell id="-K3C3dfQ-VNk3w2EAHVQ-22" value="" style="rounded=0;whiteSpace=wrap;html=1;" vertex="1" parent="1">
          <mxGeometry x="250" y="210" width="160" height="300" as="geometry" />
        </mxCell>
        <mxCell id="-K3C3dfQ-VNk3w2EAHVQ-23" value="" style="rounded=0;whiteSpace=wrap;html=1;" vertex="1" parent="1">
          <mxGeometry x="410" y="210" width="230" height="300" as="geometry" />
        </mxCell>
        <mxCell id="-K3C3dfQ-VNk3w2EAHVQ-24" value="" style="rounded=0;whiteSpace=wrap;html=1;" vertex="1" parent="1">
          <mxGeometry x="640" y="210" width="160" height="300" as="geometry" />
        </mxCell>
        <mxCell id="-K3C3dfQ-VNk3w2EAHVQ-25" value="Cena (mesečna)" style="rounded=0;whiteSpace=wrap;html=1;" vertex="1" parent="1">
          <mxGeometry x="90" y="190" width="160" height="20" as="geometry" />
        </mxCell>
        <mxCell id="-K3C3dfQ-VNk3w2EAHVQ-26" value="Cena(godišnja)" style="rounded=0;whiteSpace=wrap;html=1;" vertex="1" parent="1">
          <mxGeometry x="250" y="190" width="160" height="20" as="geometry" />
        </mxCell>
        <mxCell id="-K3C3dfQ-VNk3w2EAHVQ-27" value="Opis" style="rounded=0;whiteSpace=wrap;html=1;" vertex="1" parent="1">
          <mxGeometry x="410" y="190" width="230" height="20" as="geometry" />
        </mxCell>
        <mxCell id="-K3C3dfQ-VNk3w2EAHVQ-28" value="Naziv" style="rounded=0;whiteSpace=wrap;html=1;" vertex="1" parent="1">
          <mxGeometry x="640" y="190" width="160" height="20" as="geometry" />
        </mxCell>
        <mxCell id="-K3C3dfQ-VNk3w2EAHVQ-31" value="Podatak" style="rounded=0;whiteSpace=wrap;html=1;" vertex="1" parent="1">
          <mxGeometry x="90" y="210" width="160" height="20" as="geometry" />
        </mxCell>
        <mxCell id="-K3C3dfQ-VNk3w2EAHVQ-32" value="Podatak" style="rounded=0;whiteSpace=wrap;html=1;" vertex="1" parent="1">
          <mxGeometry x="250" y="210" width="160" height="20" as="geometry" />
        </mxCell>
        <mxCell id="-K3C3dfQ-VNk3w2EAHVQ-33" value="Podatak" style="rounded=0;whiteSpace=wrap;html=1;" vertex="1" parent="1">
          <mxGeometry x="410" y="210" width="230" height="20" as="geometry" />
        </mxCell>
        <mxCell id="-K3C3dfQ-VNk3w2EAHVQ-34" value="Podatak" style="rounded=0;whiteSpace=wrap;html=1;" vertex="1" parent="1">
          <mxGeometry x="250" y="230" width="160" height="20" as="geometry" />
        </mxCell>
        <mxCell id="-K3C3dfQ-VNk3w2EAHVQ-35" value="Podatak" style="rounded=0;whiteSpace=wrap;html=1;" vertex="1" parent="1">
          <mxGeometry x="90" y="230" width="160" height="20" as="geometry" />
        </mxCell>
        <mxCell id="-K3C3dfQ-VNk3w2EAHVQ-36" value="Izmeni" style="rounded=0;whiteSpace=wrap;html=1;" vertex="1" parent="1">
          <mxGeometry x="510" y="520" width="90" height="20" as="geometry" />
        </mxCell>
        <mxCell id="-K3C3dfQ-VNk3w2EAHVQ-37" value="Obriši" style="rounded=0;whiteSpace=wrap;html=1;" vertex="1" parent="1">
          <mxGeometry x="610" y="520" width="90" height="20" as="geometry" />
        </mxCell>
        <mxCell id="-K3C3dfQ-VNk3w2EAHVQ-38" value="Dodaj" style="rounded=0;whiteSpace=wrap;html=1;" vertex="1" parent="1">
          <mxGeometry x="710" y="520" width="90" height="20" as="geometry" />
        </mxCell>
      </root>
    </mxGraphModel>
  </diagram>
</mxfile>
